<svg version="1.1" id="Layer_1" xmlns="http://www.w3.org/2000/svg" xmlns:xlink="http://www.w3.org/1999/xlink" x="0px" y="0px"
	 width="100%" viewBox="0 0 1863 698" enable-background="new 0 0 1863 698" xml:space="preserve">
<path fill="#000000" opacity="1.000000" stroke="none" 
	d="
M1264.000000,699.000000 
	C842.666687,699.000000 421.833344,699.000000 1.000000,699.000000 
	C1.000000,466.333344 1.000000,233.666672 1.000000,1.000000 
	C622.000000,1.000000 1243.000000,1.000000 1864.000000,1.000000 
	C1864.000000,233.666672 1864.000000,466.333344 1864.000000,699.000000 
	C1664.166626,699.000000 1464.333374,699.000000 1264.000000,699.000000 
M1593.996094,536.458008 
	C1593.996094,537.624329 1593.994019,538.790588 1593.996826,539.956909 
	C1594.013428,546.983948 1594.013672,546.995605 1601.064575,546.997437 
	C1623.396606,547.003235 1645.728638,547.003845 1668.060669,546.996826 
	C1674.972778,546.994690 1674.989868,546.980591 1674.993652,540.316162 
	C1675.003662,522.650513 1675.292847,504.977295 1674.839355,487.323334 
	C1674.678345,481.052429 1677.004639,476.712250 1680.995117,472.400970 
	C1688.654785,464.125458 1695.966675,455.528931 1703.497925,447.133057 
	C1705.198486,445.237274 1707.206909,443.617584 1709.483643,441.487183 
	C1712.090210,446.043121 1714.276367,449.923340 1716.517090,453.771790 
	C1733.785645,483.431274 1751.127441,513.048462 1768.250122,542.791748 
	C1770.110107,546.022888 1772.147095,547.082153 1775.718384,547.065186 
	C1801.882935,546.941223 1828.048218,547.004333 1854.213379,546.984863 
	C1855.779785,546.983704 1857.345947,546.780212 1859.594727,546.623291 
	C1858.619263,544.670227 1858.085938,543.310059 1857.314575,542.101685 
	C1845.907715,524.232605 1834.499023,506.364502 1823.031616,488.534149 
	C1801.884521,455.653015 1780.716553,422.785156 1759.500610,389.948273 
	C1757.364868,386.642609 1756.789062,384.003662 1760.122803,380.911682 
	C1763.131348,378.121338 1765.411255,374.557373 1768.106445,371.415161 
	C1778.798340,358.950623 1789.560425,346.546112 1800.233521,334.065613 
	C1813.271729,318.819702 1826.258423,303.529572 1839.243164,288.238037 
	C1843.785889,282.888397 1848.256836,277.477692 1853.101318,271.687408 
	C1851.726807,271.352661 1851.115723,271.074280 1850.504517,271.073578 
	C1822.339844,271.040741 1794.174927,270.993591 1766.010986,271.131927 
	C1764.564697,271.139008 1762.748413,272.451630 1761.743652,273.679565 
	C1753.356079,283.931396 1745.099243,294.290619 1736.839844,304.646881 
	C1720.101685,325.634125 1703.402344,346.652222 1686.649048,367.627380 
	C1683.239014,371.896667 1679.662354,376.032806 1676.162476,380.230316 
	C1675.774292,380.026093 1675.386108,379.821899 1674.997925,379.617676 
	C1674.997925,375.652496 1674.998047,371.687347 1674.998047,367.722168 
	C1674.997437,299.892853 1674.977539,232.063507 1675.044922,164.234238 
	C1675.048828,160.276627 1674.879150,157.813828 1669.609497,157.878571 
	C1646.114380,158.167221 1622.613525,158.071823 1599.115601,157.936905 
	C1595.294434,157.914978 1593.463623,158.965027 1593.970703,162.996521 
	C1594.156494,164.472855 1593.996460,165.992523 1593.996460,167.492432 
	C1593.996216,290.151154 1593.996094,412.809906 1593.996094,536.458008 
M850.009644,516.503235 
	C862.892334,528.776123 877.538391,538.488953 894.262268,544.437012 
	C919.272949,553.332275 944.936523,556.235291 971.493591,552.248108 
	C995.293884,548.674866 1017.312927,540.727661 1038.090088,528.921204 
	C1047.788818,523.410034 1047.929443,523.231079 1042.594238,513.266968 
	C1035.402832,499.836304 1027.890259,486.577576 1020.455505,473.136475 
	C1019.542725,473.463013 1018.916138,473.634735 1018.335571,473.905151 
	C1016.832031,474.605560 1015.324951,475.304626 1013.860962,476.082672 
	C993.425110,486.942474 972.163940,493.550690 948.568787,490.095001 
	C924.276672,486.537262 905.335632,475.663757 895.251648,452.357056 
	C892.832336,446.765381 891.436279,440.731018 889.281128,433.998993 
	C893.124390,433.998993 895.427368,433.999054 897.730408,433.999023 
	C947.893494,433.998474 998.056580,433.969818 1048.219482,434.050720 
	C1052.219849,434.057159 1054.633057,433.553436 1055.133911,428.648346 
	C1056.476318,415.501587 1057.814575,402.477173 1057.227905,389.138916 
	C1056.277100,367.520905 1052.452393,346.816986 1043.587280,326.998932 
	C1032.968506,303.260681 1015.888184,285.786957 992.460205,275.041443 
	C965.697449,262.766479 937.488159,261.690796 909.274841,268.573242 
	C876.864685,276.479401 852.058289,295.813110 834.099609,323.621033 
	C822.314148,341.870300 814.699280,361.813873 811.730896,383.620941 
	C808.901489,404.406158 809.158813,425.005188 813.157288,445.465637 
	C818.421326,472.402130 830.216980,496.182526 850.009644,516.503235 
M242.499939,433.998901 
	C248.499420,433.996277 254.508575,433.786743 260.494843,434.066620 
	C264.241119,434.241760 265.518219,432.366577 265.933441,429.205963 
	C266.622437,423.960785 267.715210,418.725891 267.884552,413.462463 
	C268.719940,387.498627 267.711670,361.806702 258.575439,336.949005 
	C247.222977,306.061401 227.056122,283.789978 196.180145,272.081451 
	C172.789444,263.211456 148.450867,262.561646 124.194923,267.575195 
	C100.061996,272.563324 79.507828,284.504211 62.185646,302.198120 
	C50.068920,314.574860 40.937519,328.743774 33.756432,344.415222 
	C26.414499,360.437653 22.114679,377.288116 21.220688,394.696594 
	C20.269157,413.225525 20.498489,431.803467 24.887093,450.150421 
	C32.108192,480.338959 46.567665,506.034088 71.077492,525.321167 
	C95.628944,544.640991 124.208969,553.206116 155.164093,553.868286 
	C164.226959,554.062134 173.356384,552.985962 182.398117,551.978638 
	C208.754761,549.042053 232.566849,539.108582 254.853531,525.093201 
	C257.622986,523.351562 258.295197,521.887390 256.488220,518.709351 
	C248.619354,504.870026 241.018890,490.876251 233.466370,476.860199 
	C231.690613,473.564728 230.164658,472.746979 226.547714,474.843842 
	C203.307190,488.317413 178.586700,495.038818 151.747040,488.864960 
	C128.096802,483.424774 111.233185,469.807190 103.600540,446.116638 
	C102.418808,442.448700 101.705177,438.629974 100.556252,433.998901 
	C148.265335,433.998901 194.882660,433.998901 242.499939,433.998901 
M442.001221,524.500000 
	C442.001862,529.998962 442.313995,535.520813 441.910767,540.989990 
	C441.547668,545.914490 443.374359,547.104614 448.116089,547.095215 
	C519.102234,546.955078 590.088867,546.948364 661.074890,547.104736 
	C666.069519,547.115723 667.154602,545.452393 667.096436,540.807800 
	C666.860901,521.981018 666.826050,503.146942 667.113647,484.321594 
	C667.190613,479.278137 665.775452,477.865784 660.700867,477.889221 
	C617.876648,478.087219 575.051086,478.001892 532.225952,477.999207 
	C530.559753,477.999084 528.724854,478.402374 527.277527,477.832672 
	C525.975281,477.320038 524.593262,475.891937 524.161377,474.568970 
	C523.619507,472.909180 524.000366,470.944946 524.000305,469.112091 
	C523.998413,376.796417 523.999329,284.480743 523.996216,192.165054 
	C523.995972,185.020142 523.982971,185.006393 517.044495,185.004257 
	C494.548798,184.997360 472.053101,184.998932 449.557404,185.002823 
	C442.011993,185.004135 442.003082,185.011795 442.002930,192.563309 
	C442.000885,302.875549 442.001343,413.187775 442.001221,524.500000 
M1216.831909,464.710205 
	C1220.421997,472.866821 1223.534058,481.276489 1227.693726,489.131531 
	C1239.111084,510.692139 1255.941528,527.009521 1277.585449,538.217529 
	C1306.732056,553.310852 1337.670044,557.128479 1369.824707,551.931396 
	C1394.543457,547.936096 1416.769287,538.323120 1436.239380,520.923279 
	C1425.489624,503.131256 1414.675903,485.233551 1403.679810,467.033691 
	C1400.295898,469.232941 1397.409180,471.140717 1394.491333,472.999847 
	C1383.499146,480.004059 1371.990845,485.977539 1358.753784,486.914825 
	C1330.974731,488.881775 1310.135742,472.918823 1300.136353,448.806152 
	C1293.003906,431.607208 1291.781982,413.591064 1293.879517,395.121765 
	C1296.069092,375.842957 1302.238037,358.508514 1317.142090,345.505798 
	C1332.172974,332.392365 1350.019897,328.402863 1369.047485,333.856659 
	C1376.918579,336.112762 1383.936401,341.503815 1391.152588,345.788605 
	C1393.271729,347.046906 1394.554443,347.487762 1396.100342,345.360565 
	C1407.865845,329.171143 1419.695679,313.027832 1431.317383,296.736115 
	C1431.928711,295.879272 1431.369995,293.116913 1430.452393,292.402863 
	C1418.744873,283.292725 1405.919678,276.064911 1392.001465,270.924561 
	C1371.182129,263.235443 1349.491455,263.191803 1328.124634,266.394196 
	C1300.876587,270.478058 1276.078369,280.907745 1254.841064,299.357178 
	C1239.431885,312.743530 1228.044556,328.812561 1220.205933,347.296204 
	C1210.361206,370.510132 1207.053101,394.877655 1208.805786,420.148712 
	C1209.843872,435.115784 1211.746704,449.755219 1216.831909,464.710205 
z"/>
<path fill="#43425D" opacity="1.000000" stroke="none" 
	d="
M1593.996094,535.963318 
	C1593.996094,412.809906 1593.996216,290.151154 1593.996460,167.492432 
	C1593.996460,165.992523 1594.156494,164.472855 1593.970703,162.996521 
	C1593.463623,158.965027 1595.294434,157.914978 1599.115601,157.936905 
	C1622.613525,158.071823 1646.114380,158.167221 1669.609497,157.878571 
	C1674.879150,157.813828 1675.048828,160.276627 1675.044922,164.234238 
	C1674.977539,232.063507 1674.997437,299.892853 1674.998047,367.722168 
	C1674.998047,371.687347 1674.997925,375.652496 1674.997925,379.617676 
	C1675.386108,379.821899 1675.774292,380.026093 1676.162476,380.230316 
	C1679.662354,376.032806 1683.239014,371.896667 1686.649048,367.627380 
	C1703.402344,346.652222 1720.101685,325.634125 1736.839844,304.646881 
	C1745.099243,294.290619 1753.356079,283.931396 1761.743652,273.679565 
	C1762.748413,272.451630 1764.564697,271.139008 1766.010986,271.131927 
	C1794.174927,270.993591 1822.339844,271.040741 1850.504517,271.073578 
	C1851.115723,271.074280 1851.726807,271.352661 1853.101318,271.687408 
	C1848.256836,277.477692 1843.785889,282.888397 1839.243164,288.238037 
	C1826.258423,303.529572 1813.271729,318.819702 1800.233521,334.065613 
	C1789.560425,346.546112 1778.798340,358.950623 1768.106445,371.415161 
	C1765.411255,374.557373 1763.131348,378.121338 1760.122803,380.911682 
	C1756.789062,384.003662 1757.364868,386.642609 1759.500610,389.948273 
	C1780.716553,422.785156 1801.884521,455.653015 1823.031616,488.534149 
	C1834.499023,506.364502 1845.907715,524.232605 1857.314575,542.101685 
	C1858.085938,543.310059 1858.619263,544.670227 1859.594727,546.623291 
	C1857.345947,546.780212 1855.779785,546.983704 1854.213379,546.984863 
	C1828.048218,547.004333 1801.882935,546.941223 1775.718384,547.065186 
	C1772.147095,547.082153 1770.110107,546.022888 1768.250122,542.791748 
	C1751.127441,513.048462 1733.785645,483.431274 1716.517090,453.771790 
	C1714.276367,449.923340 1712.090210,446.043121 1709.483643,441.487183 
	C1707.206909,443.617584 1705.198486,445.237274 1703.497925,447.133057 
	C1695.966675,455.528931 1688.654785,464.125458 1680.995117,472.400970 
	C1677.004639,476.712250 1674.678345,481.052429 1674.839355,487.323334 
	C1675.292847,504.977295 1675.003662,522.650513 1674.993652,540.316162 
	C1674.989868,546.980591 1674.972778,546.994690 1668.060669,546.996826 
	C1645.728638,547.003845 1623.396606,547.003235 1601.064575,546.997437 
	C1594.013672,546.995605 1594.013428,546.983948 1593.996826,539.956909 
	C1593.994019,538.790588 1593.996094,537.624329 1593.996094,535.963318 
z"/>
<path fill="#43425D" opacity="1.000000" stroke="none" 
	d="
M849.756714,516.250122 
	C830.216980,496.182526 818.421326,472.402130 813.157288,445.465637 
	C809.158813,425.005188 808.901489,404.406158 811.730896,383.620941 
	C814.699280,361.813873 822.314148,341.870300 834.099609,323.621033 
	C852.058289,295.813110 876.864685,276.479401 909.274841,268.573242 
	C937.488159,261.690796 965.697449,262.766479 992.460205,275.041443 
	C1015.888184,285.786957 1032.968506,303.260681 1043.587280,326.998932 
	C1052.452393,346.816986 1056.277100,367.520905 1057.227905,389.138916 
	C1057.814575,402.477173 1056.476318,415.501587 1055.133911,428.648346 
	C1054.633057,433.553436 1052.219849,434.057159 1048.219482,434.050720 
	C998.056580,433.969818 947.893494,433.998474 897.730408,433.999023 
	C895.427368,433.999054 893.124390,433.998993 889.281128,433.998993 
	C891.436279,440.731018 892.832336,446.765381 895.251648,452.357056 
	C905.335632,475.663757 924.276672,486.537262 948.568787,490.095001 
	C972.163940,493.550690 993.425110,486.942474 1013.860962,476.082672 
	C1015.324951,475.304626 1016.832031,474.605560 1018.335571,473.905151 
	C1018.916138,473.634735 1019.542725,473.463013 1020.455505,473.136475 
	C1027.890259,486.577576 1035.402832,499.836304 1042.594238,513.266968 
	C1047.929443,523.231079 1047.788818,523.410034 1038.090088,528.921204 
	C1017.312927,540.727661 995.293884,548.674866 971.493591,552.248108 
	C944.936523,556.235291 919.272949,553.332275 894.262268,544.437012 
	C877.538391,538.488953 862.892334,528.776123 849.756714,516.250122 
M922.500000,379.001129 
	C942.301270,378.999451 962.103210,378.917328 981.903320,379.065765 
	C985.739868,379.094513 987.574219,377.994537 986.996399,374.002991 
	C986.311157,369.269745 986.043213,364.431244 984.869019,359.823242 
	C982.640137,351.076355 978.818176,343.059357 971.869446,336.937225 
	C958.714905,325.347534 932.669800,324.744629 916.087341,334.640717 
	C899.657288,344.445801 891.966492,359.813995 889.369263,379.001129 
	C900.291443,379.001129 910.895691,379.001129 922.500000,379.001129 
z"/>
<path fill="#43425D" opacity="1.000000" stroke="none" 
	d="
M241.999954,433.998901 
	C194.882660,433.998901 148.265335,433.998901 100.556252,433.998901 
	C101.705177,438.629974 102.418808,442.448700 103.600540,446.116638 
	C111.233185,469.807190 128.096802,483.424774 151.747040,488.864960 
	C178.586700,495.038818 203.307190,488.317413 226.547714,474.843842 
	C230.164658,472.746979 231.690613,473.564728 233.466370,476.860199 
	C241.018890,490.876251 248.619354,504.870026 256.488220,518.709351 
	C258.295197,521.887390 257.622986,523.351562 254.853531,525.093201 
	C232.566849,539.108582 208.754761,549.042053 182.398117,551.978638 
	C173.356384,552.985962 164.226959,554.062134 155.164093,553.868286 
	C124.208969,553.206116 95.628944,544.640991 71.077492,525.321167 
	C46.567665,506.034088 32.108192,480.338959 24.887093,450.150421 
	C20.498489,431.803467 20.269157,413.225525 21.220688,394.696594 
	C22.114679,377.288116 26.414499,360.437653 33.756432,344.415222 
	C40.937519,328.743774 50.068920,314.574860 62.185646,302.198120 
	C79.507828,284.504211 100.061996,272.563324 124.194923,267.575195 
	C148.450867,262.561646 172.789444,263.211456 196.180145,272.081451 
	C227.056122,283.789978 247.222977,306.061401 258.575439,336.949005 
	C267.711670,361.806702 268.719940,387.498627 267.884552,413.462463 
	C267.715210,418.725891 266.622437,423.960785 265.933441,429.205963 
	C265.518219,432.366577 264.241119,434.241760 260.494843,434.066620 
	C254.508575,433.786743 248.499420,433.996277 241.999954,433.998901 
M105.852936,358.448639 
	C103.724236,364.951019 101.595543,371.453400 99.124779,379.000641 
	C102.678307,379.000641 104.801048,379.000671 106.923782,379.000671 
	C133.241531,379.000824 159.559280,379.000916 185.877029,379.001038 
	C198.442917,379.001099 198.787811,378.948669 196.924332,366.680786 
	C192.014313,334.356689 171.416641,324.146851 142.490982,328.983124 
	C125.656372,331.797821 113.599022,342.274902 105.852936,358.448639 
z"/>
<path fill="#43425D" opacity="1.000000" stroke="none" 
	d="
M442.001221,524.000000 
	C442.001343,413.187775 442.000885,302.875549 442.002930,192.563309 
	C442.003082,185.011795 442.011993,185.004135 449.557404,185.002823 
	C472.053101,184.998932 494.548798,184.997360 517.044495,185.004257 
	C523.982971,185.006393 523.995972,185.020142 523.996216,192.165054 
	C523.999329,284.480743 523.998413,376.796417 524.000305,469.112091 
	C524.000366,470.944946 523.619507,472.909180 524.161377,474.568970 
	C524.593262,475.891937 525.975281,477.320038 527.277527,477.832672 
	C528.724854,478.402374 530.559753,477.999084 532.225952,477.999207 
	C575.051086,478.001892 617.876648,478.087219 660.700867,477.889221 
	C665.775452,477.865784 667.190613,479.278137 667.113647,484.321594 
	C666.826050,503.146942 666.860901,521.981018 667.096436,540.807800 
	C667.154602,545.452393 666.069519,547.115723 661.074890,547.104736 
	C590.088867,546.948364 519.102234,546.955078 448.116089,547.095215 
	C443.374359,547.104614 441.547668,545.914490 441.910767,540.989990 
	C442.313995,535.520813 442.001862,529.998962 442.001221,524.000000 
z"/>
<path fill="#43425D" opacity="1.000000" stroke="none" 
	d="
M1216.662842,464.349243 
	C1211.746704,449.755219 1209.843872,435.115784 1208.805786,420.148712 
	C1207.053101,394.877655 1210.361206,370.510132 1220.205933,347.296204 
	C1228.044556,328.812561 1239.431885,312.743530 1254.841064,299.357178 
	C1276.078369,280.907745 1300.876587,270.478058 1328.124634,266.394196 
	C1349.491455,263.191803 1371.182129,263.235443 1392.001465,270.924561 
	C1405.919678,276.064911 1418.744873,283.292725 1430.452393,292.402863 
	C1431.369995,293.116913 1431.928711,295.879272 1431.317383,296.736115 
	C1419.695679,313.027832 1407.865845,329.171143 1396.100342,345.360565 
	C1394.554443,347.487762 1393.271729,347.046906 1391.152588,345.788605 
	C1383.936401,341.503815 1376.918579,336.112762 1369.047485,333.856659 
	C1350.019897,328.402863 1332.172974,332.392365 1317.142090,345.505798 
	C1302.238037,358.508514 1296.069092,375.842957 1293.879517,395.121765 
	C1291.781982,413.591064 1293.003906,431.607208 1300.136353,448.806152 
	C1310.135742,472.918823 1330.974731,488.881775 1358.753784,486.914825 
	C1371.990845,485.977539 1383.499146,480.004059 1394.491333,472.999847 
	C1397.409180,471.140717 1400.295898,469.232941 1403.679810,467.033691 
	C1414.675903,485.233551 1425.489624,503.131256 1436.239380,520.923279 
	C1416.769287,538.323120 1394.543457,547.936096 1369.824707,551.931396 
	C1337.670044,557.128479 1306.732056,553.310852 1277.585449,538.217529 
	C1255.941528,527.009521 1239.111084,510.692139 1227.693726,489.131531 
	C1223.534058,481.276489 1220.421997,472.866821 1216.662842,464.349243 
z"/>
<path fill="#000000" opacity="1.000000" stroke="none" 
	d="
M922.000000,379.001129 
	C910.895691,379.001129 900.291443,379.001129 889.369263,379.001129 
	C891.966492,359.813995 899.657288,344.445801 916.087341,334.640717 
	C932.669800,324.744629 958.714905,325.347534 971.869446,336.937225 
	C978.818176,343.059357 982.640137,351.076355 984.869019,359.823242 
	C986.043213,364.431244 986.311157,369.269745 986.996399,374.002991 
	C987.574219,377.994537 985.739868,379.094513 981.903320,379.065765 
	C962.103210,378.917328 942.301270,378.999451 922.000000,379.001129 
z"/>
<path fill="#000000" opacity="1.000000" stroke="none" 
	d="
M105.978516,358.089325 
	C113.599022,342.274902 125.656372,331.797821 142.490982,328.983124 
	C171.416641,324.146851 192.014313,334.356689 196.924332,366.680786 
	C198.787811,378.948669 198.442917,379.001099 185.877029,379.001038 
	C159.559280,379.000916 133.241531,379.000824 106.923782,379.000671 
	C104.801048,379.000671 102.678307,379.000641 99.124779,379.000641 
	C101.595543,371.453400 103.724236,364.951019 105.978516,358.089325 
z"/>
</svg>